<?xml version="1.0" standalone="no"?>
<!DOCTYPE svg PUBLIC "-//W3C//DTD SVG 20010904//EN"
 "http://www.w3.org/TR/2001/REC-SVG-20010904/DTD/svg10.dtd">
<svg version="1.0" xmlns="http://www.w3.org/2000/svg"
 width="700.000000pt" height="700.000000pt" viewBox="0 0 700.000000 700.000000"
 preserveAspectRatio="xMidYMid meet">
<metadata>
Created by potrace 1.14, written by Peter Selinger 2001-2017
</metadata>
<g transform="translate(0.000000,700.000000) scale(0.100000,-0.100000)"
fill="#000000" stroke="none">
<path d="M3315 6990 c-103 -15 -132 -21 -228 -45 -756 -191 -1488 -967 -1865
-1975 -44 -118 -109 -324 -126 -400 -4 -14 -13 -54 -21 -90 -185 -817 -45
-1477 395 -1862 71 -63 187 -146 247 -177 82 -42 80 -25 28 -226 -72 -277 -76
-294 -80 -312 -2 -10 -26 -103 -54 -208 -78 -301 -173 -669 -176 -685 -2 -8
-22 -87 -45 -175 -23 -88 -43 -167 -45 -175 -2 -8 -11 -42 -20 -75 -9 -33 -18
-67 -20 -76 -2 -9 -22 -88 -45 -175 -47 -183 -50 -210 -24 -254 55 -95 183
-105 246 -19 10 13 40 112 68 219 27 107 86 337 131 510 44 173 90 349 101
390 11 41 21 82 23 90 2 8 19 78 40 155 20 77 38 147 40 155 1 8 31 123 65
255 34 132 74 285 88 340 14 55 26 101 27 103 2 2 56 -13 121 -32 118 -35 372
-89 469 -100 28 -4 59 -8 70 -10 11 -2 56 -7 99 -11 43 -4 87 -8 96 -10 88
-17 713 -25 965 -12 204 10 425 34 585 63 47 9 96 18 110 20 40 7 283 72 314
84 16 6 33 7 38 2 5 -5 38 -123 73 -263 36 -140 81 -315 101 -389 19 -74 37
-144 39 -155 3 -11 21 -81 40 -155 20 -74 38 -144 40 -155 3 -11 16 -63 29
-115 42 -162 85 -327 137 -530 28 -107 64 -247 80 -310 33 -127 48 -154 99
-181 43 -24 85 -24 129 -1 69 35 96 103 74 187 -8 27 -45 174 -84 325 -39 151
-82 318 -96 370 -13 52 -26 102 -28 110 -2 8 -13 53 -25 100 -12 47 -24 95
-26 107 -2 12 -9 35 -15 50 -6 16 -14 46 -18 68 -5 22 -34 139 -66 260 -31
121 -59 226 -60 235 -2 8 -20 78 -40 155 -20 77 -38 147 -40 155 -2 8 -17 69
-35 134 -17 66 -27 122 -23 126 5 4 44 28 88 55 240 144 435 353 539 577 57
126 64 144 91 241 61 226 81 460 61 732 -9 135 -42 363 -60 423 -3 9 -7 28
-10 42 -2 14 -13 61 -24 105 -125 501 -381 1027 -701 1440 -114 147 -132 167
-296 330 -146 145 -280 254 -425 346 -120 76 -115 73 -225 127 -154 76 -334
132 -525 167 -54 9 -359 13 -415 5z m-1080 -3070 c50 -12 99 -24 110 -26 11
-2 29 -6 40 -8 45 -10 132 -27 160 -31 17 -3 41 -8 55 -10 68 -14 70 -14 190
-30 19 -3 55 -7 80 -10 25 -3 61 -8 80 -10 33 -5 98 -10 265 -20 77 -5 494 -6
565 -1 25 2 91 6 147 10 57 4 111 9 120 10 10 2 45 7 78 10 33 4 71 9 85 11
14 2 61 9 105 15 86 12 308 55 365 70 19 5 46 11 60 13 14 3 45 10 69 17 51
14 159 17 211 6 134 -28 273 -158 307 -288 11 -41 12 -157 2 -195 -39 -150
-173 -274 -334 -309 -5 -1 -28 -6 -50 -12 -42 -12 -308 -67 -366 -77 -166 -28
-209 -34 -259 -41 -19 -2 -48 -6 -65 -9 -16 -2 -61 -7 -100 -11 -38 -3 -83 -8
-100 -10 -265 -26 -899 -26 -1115 1 -19 2 -57 6 -85 9 -52 5 -126 14 -185 22
-94 13 -167 24 -190 29 -14 3 -61 12 -105 20 -89 16 -222 44 -335 70 -198 46
-325 155 -366 317 -57 221 94 445 331 490 44 8 145 -1 230 -22z"/>
</g>
</svg>
